<?xml version="1.0" standalone="no"?>
<!DOCTYPE svg PUBLIC "-//W3C//DTD SVG 20010904//EN"
 "http://www.w3.org/TR/2001/REC-SVG-20010904/DTD/svg10.dtd">
<svg version="1.0" xmlns="http://www.w3.org/2000/svg"
 width="700.000000pt" height="700.000000pt" viewBox="0 0 700.000000 700.000000"
 preserveAspectRatio="xMidYMid meet">
<metadata>
Created by potrace 1.14, written by Peter Selinger 2001-2017
</metadata>
<g transform="translate(0.000000,700.000000) scale(0.100000,-0.100000)"
fill="#000000" stroke="none">
<path d="M3278 6996 c-1 -2 -40 -6 -85 -10 -45 -3 -88 -8 -95 -10 -7 -3 -42
-7 -77 -11 -35 -3 -85 -10 -110 -15 -25 -5 -57 -12 -71 -14 -503 -91 -1014
-318 -1449 -644 -167 -126 -404 -345 -511 -472 -11 -14 -31 -36 -44 -50 -153
-168 -379 -518 -500 -775 -95 -201 -207 -517 -241 -683 -2 -9 -8 -37 -14 -62
-11 -49 -13 -63 -35 -195 -34 -207 -41 -300 -41 -560 0 -289 14 -427 70 -715
20 -102 99 -387 124 -445 5 -11 14 -36 21 -55 7 -19 16 -44 20 -55 241 -587
565 -1031 1046 -1435 107 -90 319 -236 462 -319 73 -42 346 -181 357 -181 3 0
24 -8 48 -19 232 -103 622 -209 872 -236 28 -3 56 -8 62 -10 56 -19 549 -27
718 -12 188 17 372 49 560 97 140 36 366 110 452 147 21 9 40 17 43 18 42 12
292 137 372 185 37 22 70 40 73 40 3 0 11 5 18 10 7 6 64 44 127 86 136 91
264 189 379 293 96 87 261 254 316 321 21 25 41 47 44 50 4 3 45 55 91 115
403 530 647 1159 708 1825 14 153 5 681 -13 710 -1 3 -6 32 -9 65 -3 33 -8 69
-10 80 -2 11 -11 61 -21 110 -138 739 -534 1436 -1105 1944 -253 225 -466 370
-765 520 -294 147 -664 271 -942 315 -33 5 -116 19 -123 21 -3 1 -41 5 -85 10
-44 4 -89 10 -100 12 -25 4 -532 13 -537 9z m387 -2341 c185 -27 372 -103 520
-213 353 -260 528 -673 469 -1102 -18 -133 -44 -221 -101 -340 -149 -313 -431
-546 -765 -629 -180 -45 -396 -47 -563 -5 -446 113 -779 462 -871 914 -23 116
-23 325 0 445 35 179 139 396 253 527 90 102 222 212 315 261 24 13 50 27 58
32 8 6 29 15 45 21 17 7 53 21 81 31 156 60 384 84 559 58z"/>
</g>
</svg>
