<svg width="120" height="48" viewBox="0 0 120 48" fill="none" xmlns="http://www.w3.org/2000/svg">
<path d="M109 24C109 32.8366 101.837 40 93 40C84.1634 40 77 32.8366 77 24C77 15.1634 84.1634 8 93 8C101.837 8 109 15.1634 109 24Z" stroke="#F72C87" stroke-width="16"/>
<path d="M12.2727 12.7273L16.0909 19.5H16.2727L20.1364 12.7273H27.1818L20.2273 24.3636L27.4545 36H20.2273L16.2727 29.0909H16.0909L12.1364 36H4.95455L12.0909 24.3636L5.18182 12.7273H12.2727ZM27.9862 36V12.7273H44.759V17.8182H34.3044V21.8182H43.8953V26.9091H34.3044V30.9091H44.7135V36H27.9862ZM66.1089 12.7273V36H60.8361L52.427 23.7727H52.2907V36H45.9725V12.7273H51.3361L59.6089 24.9091H59.7907V12.7273H66.1089Z" fill="#81A5F2"/>
</svg>
